<svg id="visual" viewBox="0 0 1800 1000" width="1800" height="1000" xmlns="http://www.w3.org/2000/svg" xmlns:xlink="http://www.w3.org/1999/xlink" version="1.1"><rect x="0" y="0" width="1800" height="1000" fill="#FFFFFF"></rect><path d="M0 390L42.8 437.2C85.7 484.3 171.3 578.7 257 635.7C342.7 692.7 428.3 712.3 514 689.3C599.7 666.3 685.3 600.7 771.2 550.3C857 500 943 465 1028.8 467.3C1114.7 469.7 1200.3 509.3 1286 541.2C1371.7 573 1457.3 597 1543 561.5C1628.7 526 1714.3 431 1757.2 383.5L1800 336L1800 0L1757.2 0C1714.3 0 1628.7 0 1543 0C1457.3 0 1371.7 0 1286 0C1200.3 0 1114.7 0 1028.8 0C943 0 857 0 771.2 0C685.3 0 599.7 0 514 0C428.3 0 342.7 0 257 0C171.3 0 85.7 0 42.8 0L0 0Z" fill="#fa7268"></path><path d="M0 603L42.8 579.8C85.7 556.7 171.3 510.3 257 504.8C342.7 499.3 428.3 534.7 514 547.3C599.7 560 685.3 550 771.2 518.8C857 487.7 943 435.3 1028.8 405.7C1114.7 376 1200.3 369 1286 369.5C1371.7 370 1457.3 378 1543 420.5C1628.7 463 1714.3 540 1757.2 578.5L1800 617L1800 0L1757.2 0C1714.3 0 1628.7 0 1543 0C1457.3 0 1371.7 0 1286 0C1200.3 0 1114.7 0 1028.8 0C943 0 857 0 771.2 0C685.3 0 599.7 0 514 0C428.3 0 342.7 0 257 0C171.3 0 85.7 0 42.8 0L0 0Z" fill="#eb5967"></path><path d="M0 143L42.8 150.7C85.7 158.3 171.3 173.7 257 198.7C342.7 223.7 428.3 258.3 514 284.2C599.7 310 685.3 327 771.2 344.5C857 362 943 380 1028.8 358.8C1114.7 337.7 1200.3 277.3 1286 239C1371.7 200.7 1457.3 184.3 1543 226.7C1628.7 269 1714.3 370 1757.2 420.5L1800 471L1800 0L1757.2 0C1714.3 0 1628.7 0 1543 0C1457.3 0 1371.7 0 1286 0C1200.3 0 1114.7 0 1028.8 0C943 0 857 0 771.2 0C685.3 0 599.7 0 514 0C428.3 0 342.7 0 257 0C171.3 0 85.7 0 42.8 0L0 0Z" fill="#da3f67"></path><path d="M0 135L42.8 142.2C85.7 149.3 171.3 163.7 257 169C342.7 174.3 428.3 170.7 514 184C599.7 197.3 685.3 227.7 771.2 243.7C857 259.7 943 261.3 1028.8 241.7C1114.7 222 1200.3 181 1286 179.8C1371.7 178.7 1457.3 217.3 1543 226.2C1628.7 235 1714.3 214 1757.2 203.5L1800 193L1800 0L1757.2 0C1714.3 0 1628.7 0 1543 0C1457.3 0 1371.7 0 1286 0C1200.3 0 1114.7 0 1028.8 0C943 0 857 0 771.2 0C685.3 0 599.7 0 514 0C428.3 0 342.7 0 257 0C171.3 0 85.7 0 42.8 0L0 0Z" fill="#c62368"></path></svg>