<svg id="visual" viewBox="0 0 540 960" width="540" height="960" xmlns="http://www.w3.org/2000/svg" xmlns:xlink="http://www.w3.org/1999/xlink" version="1.1"><rect x="0" y="0" width="540" height="960" fill="#FFFFFF"></rect><path d="M0 402L9 430.7C18 459.3 36 516.7 54 564.3C72 612 90 650 108 645.5C126 641 144 594 162 554.2C180 514.3 198 481.7 216 457.7C234 433.7 252 418.3 270 386.8C288 355.3 306 307.7 324 286.8C342 266 360 272 378 308.2C396 344.3 414 410.7 432 442.3C450 474 468 471 486 467.3C504 463.7 522 459.3 531 457.2L540 455L540 0L531 0C522 0 504 0 486 0C468 0 450 0 432 0C414 0 396 0 378 0C360 0 342 0 324 0C306 0 288 0 270 0C252 0 234 0 216 0C198 0 180 0 162 0C144 0 126 0 108 0C90 0 72 0 54 0C36 0 18 0 9 0L0 0Z" fill="#fa7268"></path><path d="M0 383L9 404.8C18 426.7 36 470.3 54 497.2C72 524 90 534 108 530.3C126 526.7 144 509.3 162 449.2C180 389 198 286 216 286.5C234 287 252 391 270 452.8C288 514.7 306 534.3 324 518.8C342 503.3 360 452.7 378 444.2C396 435.7 414 469.3 432 479.7C450 490 468 477 486 483.7C504 490.3 522 516.7 531 529.8L540 543L540 0L531 0C522 0 504 0 486 0C468 0 450 0 432 0C414 0 396 0 378 0C360 0 342 0 324 0C306 0 288 0 270 0C252 0 234 0 216 0C198 0 180 0 162 0C144 0 126 0 108 0C90 0 72 0 54 0C36 0 18 0 9 0L0 0Z" fill="#eb5967"></path><path d="M0 152L9 157.8C18 163.7 36 175.3 54 190.3C72 205.3 90 223.7 108 246.3C126 269 144 296 162 318.5C180 341 198 359 216 371.3C234 383.7 252 390.3 270 394C288 397.7 306 398.3 324 366.3C342 334.3 360 269.7 378 236.7C396 203.7 414 202.3 432 206.7C450 211 468 221 486 256.3C504 291.7 522 352.3 531 382.7L540 413L540 0L531 0C522 0 504 0 486 0C468 0 450 0 432 0C414 0 396 0 378 0C360 0 342 0 324 0C306 0 288 0 270 0C252 0 234 0 216 0C198 0 180 0 162 0C144 0 126 0 108 0C90 0 72 0 54 0C36 0 18 0 9 0L0 0Z" fill="#da3f67"></path><path d="M0 239L9 216.7C18 194.3 36 149.7 54 120.8C72 92 90 79 108 91.3C126 103.7 144 141.3 162 170C180 198.7 198 218.3 216 225.5C234 232.7 252 227.3 270 193C288 158.7 306 95.3 324 65C342 34.7 360 37.3 378 42C396 46.7 414 53.3 432 53.8C450 54.3 468 48.7 486 45.3C504 42 522 41 531 40.5L540 40L540 0L531 0C522 0 504 0 486 0C468 0 450 0 432 0C414 0 396 0 378 0C360 0 342 0 324 0C306 0 288 0 270 0C252 0 234 0 216 0C198 0 180 0 162 0C144 0 126 0 108 0C90 0 72 0 54 0C36 0 18 0 9 0L0 0Z" fill="#c62368"></path></svg>