<svg id="visual" viewBox="0 0 1800 1000" width="1800" height="1000" xmlns="http://www.w3.org/2000/svg" xmlns:xlink="http://www.w3.org/1999/xlink" version="1.1"><rect x="0" y="0" width="1800" height="1000" fill="#FFFFFF"></rect><path d="M0 418L30 448C60 478 120 538 180 587.8C240 637.7 300 677.3 360 672.7C420 668 480 619 540 577.5C600 536 660 502 720 477C780 452 840 436 900 403.2C960 370.3 1020 320.7 1080 298.8C1140 277 1200 283 1260 320.7C1320 358.3 1380 427.7 1440 460.7C1500 493.7 1560 490.3 1620 486.5C1680 482.7 1740 478.3 1770 476.2L1800 474L1800 0L1770 0C1740 0 1680 0 1620 0C1560 0 1500 0 1440 0C1380 0 1320 0 1260 0C1200 0 1140 0 1080 0C1020 0 960 0 900 0C840 0 780 0 720 0C660 0 600 0 540 0C480 0 420 0 360 0C300 0 240 0 180 0C120 0 60 0 30 0L0 0Z" fill="#fa7268"></path><path d="M0 399L30 421.7C60 444.3 120 489.7 180 517.7C240 545.7 300 556.3 360 552.7C420 549 480 531 540 468.3C600 405.7 660 298.3 720 298.8C780 299.3 840 407.7 900 472.2C960 536.7 1020 557.3 1080 541.2C1140 525 1200 472 1260 463C1320 454 1380 489 1440 499.7C1500 510.3 1560 496.7 1620 503.7C1680 510.7 1740 538.3 1770 552.2L1800 566L1800 0L1770 0C1740 0 1680 0 1620 0C1560 0 1500 0 1440 0C1380 0 1320 0 1260 0C1200 0 1140 0 1080 0C1020 0 960 0 900 0C840 0 780 0 720 0C660 0 600 0 540 0C480 0 420 0 360 0C300 0 240 0 180 0C120 0 60 0 30 0L0 0Z" fill="#eb5967"></path><path d="M0 158L30 164.2C60 170.3 120 182.7 180 198.5C240 214.3 300 233.7 360 257.2C420 280.7 480 308.3 540 331.7C600 355 660 374 720 386.8C780 399.7 840 406.3 900 410.2C960 414 1020 415 1080 381.7C1140 348.3 1200 280.7 1260 246.2C1320 211.7 1380 210.3 1440 214.8C1500 219.3 1560 229.7 1620 266.5C1680 303.3 1740 366.7 1770 398.3L1800 430L1800 0L1770 0C1740 0 1680 0 1620 0C1560 0 1500 0 1440 0C1380 0 1320 0 1260 0C1200 0 1140 0 1080 0C1020 0 960 0 900 0C840 0 780 0 720 0C660 0 600 0 540 0C480 0 420 0 360 0C300 0 240 0 180 0C120 0 60 0 30 0L0 0Z" fill="#da3f67"></path><path d="M0 249L30 225.8C60 202.7 120 156.3 180 126.3C240 96.3 300 82.7 360 95.5C420 108.3 480 147.7 540 177.5C600 207.3 660 227.7 720 235C780 242.3 840 236.7 900 201C960 165.3 1020 99.7 1080 68C1140 36.3 1200 38.7 1260 43.3C1320 48 1380 55 1440 55.7C1500 56.3 1560 50.7 1620 47.2C1680 43.7 1740 42.3 1770 41.7L1800 41L1800 0L1770 0C1740 0 1680 0 1620 0C1560 0 1500 0 1440 0C1380 0 1320 0 1260 0C1200 0 1140 0 1080 0C1020 0 960 0 900 0C840 0 780 0 720 0C660 0 600 0 540 0C480 0 420 0 360 0C300 0 240 0 180 0C120 0 60 0 30 0L0 0Z" fill="#c62368"></path></svg>